<?xml version="1.0" encoding="utf-8"?>
<!-- Generator: Adobe Illustrator 27.3.1, SVG Export Plug-In . SVG Version: 6.00 Build 0)  -->
<svg version="1.1" id="Livello_1" xmlns="http://www.w3.org/2000/svg" xmlns:xlink="http://www.w3.org/1999/xlink" x="0px" y="0px"
	 viewBox="0 0 1134 340" style="enable-background:new 0 0 1134 340;" xml:space="preserve">
<style type="text/css">
	.st0{fill:#FFFFFF;}
</style>
<path class="st0" d="M8,171c0,92,76,168,168,168s168-76,168-168S268,4,176,4S8,79,8,171z M238,249c-39-24-89-30-147-17
	c-14,2-16-18-4-20c64-15,118-8,162,19C260,238,249,255,238,249z M255,204c-45-28-114-36-167-20c-17,5-23-21-7-25c61-18,136-9,188,23
	C283,191,269,213,255,204z M80,133c-17,6-28-23-9-30c59-18,159-15,221,22c17,9,1,37-17,27C221,120,131,117,80,133z M459,224
	c-17,0-33-6-47-20c-1,0-1,1-1,1l-16,19c-1,1-1,2,0,3c18,16,40,24,64,24c34,0,55-19,55-47c0-24-15-37-50-46c-29-7-34-12-34-22
	s10-16,23-16s25,5,39,15c0,0,1,1,2,1s1-1,1-1l14-20c1-1,1-1,0-2c-16-13-35-20-56-20c-31,0-53,19-53,46c0,29,20,38,52,46
	c28,6,32,12,32,22C484,218,474,224,459,224z M554,147v-13c0-1-1-2-2-2h-26c-1,0-2,1-2,2v147c0,1,1,2,2,2h26c1,0,2-1,2-2v-46
	c10,11,21,16,36,16c27,0,54-21,54-61s-27-60-54-60C575,130,564,135,554,147z M584,225c-18,0-31-15-31-35s13-34,31-34s30,14,30,34
	S602,225,584,225z M652,191c0,34,27,60,62,60s62-27,62-61s-26-60-61-60S652,157,652,191z M682,190c0-20,13-34,32-34s33,15,33,35
	s-13,34-32,34S682,210,682,190z M822,132v-29c0-1,0-2-1-2h-26c-1,0-2,1-2,2v29h-13c-1,0-2,1-2,2v22c0,1,1,2,2,2h13v58
	c0,23,11,35,34,35c9,0,18-2,25-6c1,0,1-1,1-2v-21c0-1,0-2-1-2h-2c-5,3-11,4-16,4c-8,0-12-4-12-12v-54h30c1,0,2-1,2-2v-22
	c0-1-1-2-2-2H822z M951,129c0-11,4-15,13-15c5,0,10,0,15,2h1c0,0,1-1,1-2V93c0-1,0-2-1-2c-5-2-12-3-22-3c-24,0-36,14-36,39v5h-13
	c-1,0-2,1-2,2v22c0,1,1,2,2,2h13v89c0,1,1,2,2,2h26c1,0,1-1,1-2v-89h25l37,89c-4,9-8,11-14,11c-5,0-10-1-15-4h-1l-1,1l-9,19
	c0,1,0,3,1,3c9,5,17,7,27,7c19,0,30-9,39-33l45-116v-2c0-1-1-1-2-1h-27c-1,0-1,1-1,2l-28,78l-30-78c0-1-1-2-2-2h-44V129z M868,132
	c-1,0-2,1-2,2v113c0,1,1,2,2,2h26c1,0,1-1,1-2V134c0-1,0-2-1-2H868z M862,99c0,10,9,19,19,19s18-9,18-19s-8-18-18-18S862,89,862,99z
	 M1107,168c10,0,19-8,19-18s-9-18-19-18s-18,8-18,18S1097,168,1107,168z M1107,134c9,0,17,7,17,16s-8,16-17,16s-16-7-16-16
	S1098,134,1107,134z M1111,152c3-1,5-3,5-6c0-4-4-6-8-6h-8v19h4v-6h4l4,6h5L1111,152z M1108,143c2,0,4,1,4,3s-2,3-4,3h-4v-6H1108z"
	/>
</svg>
